<?xml version="1.0" encoding="utf-8"?>
<!-- Svg Vector Icons : http://www.onlinewebfonts.com/icon -->
<!DOCTYPE svg PUBLIC "-//W3C//DTD SVG 1.1//EN" "http://www.w3.org/Graphics/SVG/1.1/DTD/svg11.dtd">
<svg version="1.1" xmlns="http://www.w3.org/2000/svg" xmlns:xlink="http://www.w3.org/1999/xlink" x="0px" y="0px" viewBox="0 0 256 256" enable-background="new 0 0 256 256" xml:space="preserve">
<metadata> Svg Vector Icons : http://www.onlinewebfonts.com/icon </metadata>
<g><g><path fill="#000000" d="M201.2,146.5l-1.6-0.6l1.4-1.1c10.3-8,16.2-20.1,16.2-32.9c0-23.1-18.9-41.9-42.2-41.9s-42.2,18.8-42.2,41.9c0,12.9,5.9,24.9,16.2,32.9l1.4,1.1l-1.6,0.6C121.6,157.3,104,183,104,212v14.3c0,3.4,2.8,6.1,6.2,6.1h129.6c3.4,0,6.2-2.8,6.2-6.1V212C246,183,228.4,157.3,201.2,146.5z M145.2,111.8c0-16.3,13.4-29.6,29.8-29.6c16.4,0,29.8,13.3,29.8,29.6c0,16.3-13.4,29.6-29.8,29.6C158.6,141.5,145.2,128.2,145.2,111.8z M233.6,220.2H116.4V212c0-32.1,26.3-58.3,58.6-58.3c32.3,0,58.6,26.1,58.6,58.3V220.2z"/><path fill="#000000" d="M91.7,114.1l-30,30l9.7,7.2l33.4-33.4V64.5H91.7V114.1z"/><path fill="#000000" d="M25.8,126.5c-4.1-19.1-0.5-38.8,10.1-55.2c10.6-16.4,27-27.8,46.2-31.9c5.1-1.1,10.3-1.6,15.5-1.6c19.6,0,38.7,8,52.4,22.1l14.5-5.2C148,35.2,123.1,23.6,97.7,23.6c-6.2,0-12.4,0.7-18.5,2C56.4,30.4,36.8,44,24.1,63.6c-12.7,19.7-17,43.1-12.1,65.9c7.4,34.5,34.5,61,69.1,67.6l9.1-13C58.3,181,32.6,158.1,25.8,126.5z"/></g></g>
</svg>